<?xml version="1.0" encoding="utf-8"?>
<!-- Generator: Adobe Illustrator 22.1.0, SVG Export Plug-In . SVG Version: 6.00 Build 0)  -->
<svg version="1.1" id="Layer_1" xmlns="http://www.w3.org/2000/svg" xmlns:xlink="http://www.w3.org/1999/xlink" x="0px" y="0px"
	 viewBox="0 0 8192 8192" style="enable-background:new 0 0 8192 8192;" xml:space="preserve">
<style type="text/css">
	.st0{fill:#A91E22;}
</style>
<g>
	<g id="XMLID_1_">
		<g>
			<path class="st0" d="M7946.3,7788l16.1,81.6L231.7,5714.4L4377.5,325.6l40.8,27.6l19.2,13L4762.3,586L6803,2008.9l4,20.3
				l908.1,4589.5l230.1,1163.1l-0.3-0.6L7946.3,7788z M7801.8,7718.4l-3420-7230.1L405.7,5656.4L7801.8,7718.4z M7765.5,7401.9
				L6710.4,2069.3L4521.1,542.8L7765.5,7401.9z"/>
			<path class="st0" d="M6947.9,3903.2l6.9,93.2l-81-122.5l16.2,204.2l-65.7-96.6l-281.3-637l-7.3-72.8l262.3,402l-5.4-65.2
				l68.5,105.9l5,63.7L6947.9,3903.2z M6815.8,3885.5l-10.4-124.8l-133.3-201.9L6815.8,3885.5z"/>
			<path class="st0" d="M6494.3,3881.1c0.3,16.9-3.5,27.1-11.5,30.6c-6,2.6-13.6,1.2-22.7-4.2c-9.2-5.4-19.6-14.5-31.2-27.3
				c-11.7-12.9-24.1-28.9-37.2-48.1c-13.2-19.4-26.4-41.3-39.7-65.7c24.7,55.8,40.2,102.4,46.8,140.1c6.5,37.4,2.7,59.1-11.5,65.3
				c-9.6,4.1-22.2,0-38-12.6c-15.9-12.6-33.9-32.4-54.2-59.3c-20.4-27.2-43-61.5-67.9-103.2c-25.1-42.2-51.7-90.9-79.9-146.5
				c-36.2-71.4-66-136.6-89.2-195.1c-23.4-59.3-39.7-110.4-48.6-153.2l88.7,101.2c5.3,28,14.6,60.2,28,96.3
				c13.3,35.9,32.6,79.2,58,129.8c28.3,56.4,52.2,97.9,71.9,124.9c19.5,26.7,34.4,37.9,44.9,33.5c10.9-4.5,11-24.5,0.4-60.1
				c-10.7-35.9-33-88.3-67.3-157.9l-19.4-39.4l32.3-12.4l21.3,43.6c28.1,57.4,52.4,100.2,73.2,128.8c20.6,28.3,35.3,40.6,44.2,36.9
				c8.4-3.5,8.7-18.6,0.7-45.4c-8-27-21.9-61-41.8-102.2c-20.5-42.6-41.2-80.3-62.3-112.9c-21.2-33-41.3-59-60.3-78.1l-28.5-134.3
				c12.2,13,26.2,31,41.9,54c15.6,22.9,32.2,48.9,49.5,78.1c17.2,29,35,60.6,53.1,94.8c18,33.9,35.6,68.8,52.6,104.6
				c22.1,46.4,40.7,88.9,55.9,127.4c15.1,38.3,26.7,71.6,34.8,100.2C6489.8,3841.5,6493.9,3864.2,6494.3,3881.1z"/>
			<path class="st0" d="M6309.9,2553.9l95.3,184.6c-1.2,7.1-4.2,13.2-9,18.2c-4.8,5-11.7,7.4-20.5,7.3c-8.8-0.1-19.8-3.8-33-11
				c-13.2-7.3-29-19.9-47.4-37.9c-21-20.5-41.7-44.6-62.2-72.3c-20.7-27.9-40.4-57.9-59.1-90.2c-18.9-32.5-36.6-66.7-53-102.6
				c-16.5-36.1-30.9-72-43.1-107.5c-11.6-33.8-19-60.9-22.1-81.3c-3.2-20.5-3.8-36.4-1.8-47.8c2-11.4,5.7-19.3,11.1-23.7
				c5.4-4.4,11-7.4,16.9-9.1c4.7-1.5,10.1-3.4,16.1-5.5c6-2.1,11.4-5.6,16.3-10.5c4.9-4.8,8.9-10.9,11.9-18.4
				c3-7.4,4.1-16.7,3.4-27.9l-208.4-219.1l-65.9-192.2l333.8,357.4c14.4,44.3,25.8,82.5,34.3,114.8c8.4,32.1,13.7,59,15.9,80.9
				c2.2,21.8,1,38.8-3.7,50.9c-4.6,12.2-12.9,20.2-24.9,24.2c-10.7,2.8-20.2,5.1-28.6,6.9c-8.4,1.8-14.9,4.7-19.5,8.8
				c-4.7,4-7.1,10.5-7.2,19.5c-0.1,8.9,2.8,22.4,8.9,40.4c9.5,28.2,22.8,57.5,39.8,87.8c16.9,30.1,34.7,54.5,53.6,73.3
				c10,10,18.2,16.1,24.5,18.5c6.3,2.4,11.5,2.2,15.4-0.6c3.9-2.7,6.9-7.2,8.8-13.5C6308.2,2570,6309.4,2562.6,6309.9,2553.9z"/>
			<path class="st0" d="M5708.4,3562l307,860.7l-256.5,91.5l-107.4-301l-642.3,229.1c21.5,6.7,46,20.6,73.5,41.9
				c27.5,21.3,54.8,45.4,81.9,72.3c27.2,27,51.9,56,74.1,87.1c22.3,31.1,38.1,60.1,47.7,86.9l-265,94.5
				c-9.1-25.4-28.3-53.6-57.6-84.6c-29.3-30.9-61.6-60.1-96.9-87.3c-35.2-27.3-68.4-50.1-99.7-68.4c-31.2-18.3-54.4-28.8-69.7-31.3
				L4594,4263l954-340.3l-96-269.2L5708.4,3562z"/>
			<path class="st0" d="M4168,4869l-229.4,937.9L4131,5854l-64.2,262.3l-192.4-47.1l-79.7,325.8l-293-71.7l79.7-325.8l-638.4-156.1
				l63.6-260.2l962.4-760.9L4168,4869z M3678.5,5743.3l120.9-494.1l-499.1,401.6L3678.5,5743.3z"/>
			<path class="st0" d="M4010.3,3410.7c2.3,28.6,0.3,64.5-5.9,107.8c-6.2,43.3-17.8,90.2-34.8,140.8c-17,50.6-40.3,102.5-70,155.8
				c-29.6,53.2-67.3,104.7-113.1,154.4c-51.8,56.3-105,100.2-159.4,131.7c-54.4,31.4-108.1,50.9-160.8,58.4
				c-52.8,7.5-103.9,3.2-153.5-12.8c-49.5-16-94.7-42.8-135.5-80.4c-38.7-35.6-66.3-74.3-82.9-116c-16.6-41.8-26.3-84.4-29.2-127.8
				c-2.8-43.4-0.9-86,5.9-127.7c6.8-41.7,14.7-80.8,23.8-117.3c7.2-30,15.4-64.4,24.4-103c9-38.6,16.4-78.2,22.2-118.8
				c5.8-40.6,9.2-79.8,10.3-117.5c1.1-37.8-2.1-70.3-9.6-97.6l-461.8,501.8L2480,3458.1l734.7-798.2c49.7,45.7,91.1,91,124.3,135.8
				c33.2,44.8,58,92.6,74.4,143.4c16.4,50.8,24.1,106.8,22.9,167.9c-1.2,61.1-11.3,130.8-30.4,209.1c-17.4,67.6-33,127.2-46.8,178.8
				c-13.8,51.5-23.6,96-29.5,133.4c-5.9,37.4-6.4,69.5-1.6,96.4c4.8,26.8,17.7,50,38.7,69.3c33.1,30.5,73.7,43.4,121.9,38.8
				c48.1-4.7,95.1-31.8,140.8-81.5c24.4-26.5,43.2-54.1,56.3-82.8c13.1-28.7,22.6-58.3,28.2-88.8c5.6-30.5,8.4-60.6,8.2-90.3
				c-0.2-29.7-2.4-58.8-6.8-87.3L4010.3,3410.7z"/>
		</g>
		<g>
		</g>
	</g>
</g>
</svg>
