<?xml version="1.0" encoding="utf-8"?>
<!-- Generator: Adobe Illustrator 22.1.0, SVG Export Plug-In . SVG Version: 6.00 Build 0)  -->
<svg version="1.1" id="Layer_1" xmlns="http://www.w3.org/2000/svg" xmlns:xlink="http://www.w3.org/1999/xlink" x="0px" y="0px"
	 viewBox="0 0 8192 8192" style="enable-background:new 0 0 8192 8192;" xml:space="preserve">
<style type="text/css">
	.st0{fill:#A91E22;}
</style>
<g>
	<g id="XMLID_1_">
		<g>
			<path class="st0" d="M7631.7,5718.7l10.6,46.9l-47,25.4L3844.7,7819.7L1344.3,5791l-29.2-23.7l-7.8-38.5L551.7,2021.7
				L4471.3,392.5l43.1-17.9l33.3,23.5l2236.6,1577.4L7631.7,5718.7z M7490.4,5685.4L4507.2,538.9L1455.7,5685.4H7490.4z
				 M7454,5412.2l-763.9-3373.9L4674.3,616.6L7454,5412.2z M3856.5,7693.3L7373.4,5791H1511.9L3856.5,7693.3z M1387.4,5593.6
				L4381.3,544.3L672.5,2085.9L1387.4,5593.6z"/>
			<path class="st0" d="M6711,2996.6c7.7,52,1,83-22.1,89.8l-138.8-224.6c17.3-5.2,25.1-23.2,24.5-52.8c-0.6-27.8-9-62.9-24.8-105.1
				c-18-48.3-42.1-96.9-72.8-147.1c-30.4-49.8-63-93.5-98.9-132.7c-35.9-39.2-62.1-59.5-78.3-59.8c-17.1-0.4-20.2,20.4-8,64.1
				c8.4,30.1,22.8,65.7,43.4,106.4c21,41.6,45.1,82.4,72.1,121.8l64.4,210.3c-2.6-2.4-13.5-14.1-32.6-35.3
				c-19.4-21.5-44.7-49.4-76.2-84c-32.2-35.4-68.9-75.6-110.5-121c-42.9-46.8-88-96.4-135.6-149.1
				c-118.4-130.1-262.5-288.3-438.5-481.3l47.1-369.2l191.1,215l21.3,270.5l265,302.8c-15.4-24.7-29.4-52.5-42-82.8
				c-12.3-29.7-21.5-59.4-27.5-88.6c-8.4-41-8.4-69.1-0.7-85.3c7.3-15.3,20.6-19.5,39.5-13.7c17.9,5.5,40.5,20.1,67.4,42.9
				c25.8,21.9,55.2,51.8,88.1,89.3c33.7,38.4,65.6,78.5,96.2,120.8c30.2,41.8,58.7,84.6,85.8,129c27.4,44.8,53.1,90.8,77.6,138.7
				c25.2,49.3,47.9,98.6,68,148.4C6685,2887.7,6704,2949,6711,2996.6z"/>
			<path class="st0" d="M5150,3993c14.7,40.2,22,84.2,22,132.1c0,77.3-15.9,146.8-47.5,208.6c-31.7,61.8-75,115.1-129.8,159.9
				c-54.9,44.8-118.6,79.2-191.2,103.1c-72.6,23.9-149.9,35.9-231.8,35.9c-81.9,0-159.2-12.8-231.8-38.2
				c-72.6-25.5-136-61.4-190-107.8c-54.1-46.4-96.6-101.2-127.5-164.6c-30.9-63.3-46.3-132.9-46.3-208.6c0-46.4,7.7-89.2,23.2-128.6
				c15.4-39.4,35.5-75.3,60.3-107.8c24.7-32.4,52.2-61,82.3-85.8c30.1-24.7,60.6-44.8,91.5-60.3c-57.2-27.8-105.9-69.5-146-125.2
				c-40.2-55.6-60.3-116.6-60.3-183.1c0-74.2,16.6-139.4,49.8-195.9c33.2-56.4,76.5-103.9,129.8-142.5c53.3-38.6,112-68,176.1-88.1
				c64.1-20.1,127.8-30.1,191.2-30.1c61.8,0,125.5,9.7,191.2,29c65.7,19.3,124.8,48.3,177.3,86.9c52.5,38.6,95.8,86.1,129.8,142.5
				c34,56.4,51,121.7,51,195.9c0,32.4-5.4,64.5-16.2,96.2c-10.8,31.7-25.9,61.1-45.2,88.1c-19.3,27.1-42.1,51.4-68.4,73
				c-26.3,21.6-54.1,39.4-83.5,53.3c34,17,66.4,38.2,97.4,63.7c30.9,25.5,58.7,54.9,83.4,88.1
				C5115.6,3916.1,5135.3,3952.8,5150,3993z M4833.6,4205c15.4-30.1,23.2-62.9,23.2-98.5c0-38.6-8.1-73.4-24.3-104.3
				c-16.2-30.9-37.9-56.8-64.9-77.6c-27-20.9-57.6-36.7-91.5-47.5c-34-10.8-68.8-16.2-104.3-16.2c-37.1,0-72.6,5.8-106.6,17.4
				c-34,11.6-63.8,28.2-89.2,49.8c-25.5,21.7-46,47.5-61.4,77.6c-15.5,30.1-23.2,63.7-23.2,100.8c0,37.1,8.1,70.7,24.3,100.8
				c16.2,30.1,37.4,56,63.7,77.6c26.3,21.7,56.4,38.2,90.4,49.8c34,11.6,68.7,17.4,104.3,17.4c37.1,0,72.6-6.2,106.6-18.5
				c34-12.4,64.1-29.3,90.4-51C4797.3,4261.1,4818.2,4235.2,4833.6,4205z M4785,3514.4c13.9-23.9,20.9-52.2,20.9-84.6
				c0-57.1-22.8-102.7-68.4-136.7c-45.6-34-100.8-51-165.7-51c-63.4,0-117.5,17.4-162.2,52.1c-44.8,34.8-67.2,80.8-67.2,137.9
				c0,32.4,6.9,60.7,20.9,84.6c13.9,24,32,44,54.5,60.3c22.4,16.2,47.1,28.6,74.2,37.1c27,8.5,54.5,12.8,82.3,12.8
				c26.3,0,53.3-4.2,81.1-12.8c27.8-8.5,52.9-21.2,75.3-38.2C4752.9,3558.8,4771,3538.3,4785,3514.4z"/>
			<path class="st0" d="M3394.9,6203.9l1025.3,35.6c-0.4,55.4-5.5,104.7-15.2,148.1c-9.5,43-25.9,82.1-49,117.5
				c-22.9,35.1-54.2,67.5-93.8,97.3c-39.4,29.6-89.3,58.3-149.9,86.1c-52.7,23.5-99.2,44-139.6,61.5
				c-40.3,17.5-73.6,33.6-100.2,48.5c-26.5,14.8-46.3,29.9-59.5,45.4c-13.1,15.3-18.8,33.1-17.2,53.2c2.7,31.5,20.4,58.3,53,80.7
				c32.3,22.1,77,33.1,133.9,33.3c30.3,0.1,57.8-3.2,82.6-9.7c24.8-6.5,48-15.3,69.5-26.4c21.6-11.1,41.2-23.5,59-37.3
				c17.9-13.8,34.2-28.3,49-43.8l160.1,150.7c-15.8,13.7-38.3,28.7-67.3,44.8c-29,16.1-63,31.1-102.2,45.3
				c-39.1,14.1-82.5,25.8-130.3,35.1c-47.8,9.3-99.4,14.1-154.7,14.4c-63,0.3-120-5.5-171.1-17.4c-51.4-12-95.9-29.1-133.3-51.3
				c-37.8-22.4-68.1-49.6-90.8-81.6c-22.9-32.4-37-68.1-42-106.9c-4.7-37.2-0.2-70.4,13.6-99.5c13.9-29.3,33-55.5,57.4-78.4
				c24.5-23,51.8-43,81.9-60c30.1-17,59.6-32,88.1-45.2c23.4-11,50.1-23.6,80.1-37.9c30.1-14.3,59.7-30.1,89-47.4
				c29.4-17.3,56.4-35.3,81.1-54c24.8-18.8,43.6-37.4,56.4-56l-634.1-16.2L3394.9,6203.9z"/>
			<path class="st0" d="M2704.3,2157.3l107.2,233.1l-765.4,645.1l73.4,242.7l-199.1,163l-194.6-727.3l175.7-156.5l70.9,234.6
				l483.6-419.3c-17.2,1.5-37-2.6-59.1-12.1c-21.9-9.4-43.6-21.4-64.9-35.9c-21.2-14.3-40.3-31.1-57.5-50.4
				c-17-19.1-29.1-38.4-36.5-58l196.3-175.5c7.7,18.3,23.4,35.2,47.1,51c24,15.9,50.6,29.3,79.7,40.2c29.4,11,57.4,18.9,83.8,23.5
				C2671.7,2160.2,2691.5,2160.8,2704.3,2157.3z"/>
		</g>
		<g>
		</g>
	</g>
</g>
</svg>
