<?xml version="1.0" encoding="utf-8"?>
<!-- Generator: Adobe Illustrator 22.1.0, SVG Export Plug-In . SVG Version: 6.00 Build 0)  -->
<svg version="1.1" id="Layer_1" xmlns="http://www.w3.org/2000/svg" xmlns:xlink="http://www.w3.org/1999/xlink" x="0px" y="0px"
	 viewBox="0 0 8192 8192" style="enable-background:new 0 0 8192 8192;" xml:space="preserve">
<style type="text/css">
	.st0{fill:#6D6E6E;}
	.st1{fill:#FFFFFF;}
</style>
<g>
	<g id="XMLID_1_">
		<g>
			<path class="st0" d="M6549.5,1197.1l1541.9,3090.9l-27.7,30.6L5804.4,7825.9l-39.4,66.3l-243.5-31.2l-2750.5-333l-900-395.3
				l-352.1-156.7L141.8,3995.8l-41.4-89.4l71.7-114.4L2319.9,366.1l-0.3-1.1l40.5-64.8l4112.7,843.9l56.1,11.4L6549.5,1197.1z
				 M7926.9,4265.2L6580.7,1566.5L6903,5393.2L7926.9,4265.2z M6329.2,6758.3l1173.3-1821.7l-583.8,643.2l-13.7,14.9l-30.9,62.8
				L6329.2,6758.3z M6767.3,5416.2L6422.7,1323L3221.6,2946.5L6767.3,5416.2z M5691.1,7738.4l1018-2056.7l-3781,1433.5
				L5691.1,7738.4z M2769.4,7028.7l3932.7-1491L3145.4,3060.6L2769.4,7028.7z M3132.5,2838l3143.9-1594.4L2489.1,466.5L3132.5,2838z
				 M2807.5,7394.2l1587.7,192.3l-1699.5-383.3l-18.8-4.3l-60.4-11.1l-479.4-88L2807.5,7394.2z M2638.8,6953.8l371.4-3918.3
				L291.8,3945.5L2638.8,6953.8z M3005.3,2892.7L2368.6,546.2L337.9,3785.6L3005.3,2892.7z M2525.9,7031.9L489.7,4421.8L1179.1,5914
				l172.7,373.4l267,577.9L2525.9,7031.9z"/>
			<path class="st0" d="M7354.7,3734.6l148.3,700.7l-106-50.6l-49.8-259.3l-221-87.7c6.9,11.5,14.6,28.9,23.5,52.1
				c9,23.5,17.9,49.2,26.9,76.9c9.3,28.1,17.8,57.2,25.6,87.1c7.9,30.3,13.7,57.1,17.2,79.8l-91.4-44.5c-2.9-20.7-9-47.1-18.3-78.9
				c-9.1-31-19.2-61.6-29.9-91.6c-10.5-29.6-20.3-55.1-29.4-76.9c-9-21.4-15.7-35.5-20.1-42.1l-24.5-196.2l298.2,97.1l-36.3-189
				L7354.7,3734.6z"/>
			<path class="st0" d="M7226.8,3130.8l105.1,496.1l-83.8-19.3l-35.2-182.9l-180-30.6c5.5,7.6,11.6,19.5,18.6,35.3
				c7,16.2,14.1,34,21.1,53.2c7.1,19.5,13.7,39.6,19.5,60.6c6.1,21.2,10.4,39.9,13,56.1l-74.5-17.8c-2-14.9-6.7-33.5-13.9-55.6
				c-7.1-21.8-15.1-43-23.5-63.7c-8.4-20.4-16.3-38-23.6-53c-7.3-14.8-12.7-24.2-16.3-28.4l-18-145.3l246.7,28.2l-26.4-137.5
				L7226.8,3130.8z"/>
			<path class="st0" d="M6203.1,2838c9.9,58.9,5.8,115.1-12.6,168.4c-18.6,53.9-50.4,100.7-95.5,140l-131-101.7
				c31.9-23.8,55-53.4,69.5-88.6c14.2-35,18.4-72.2,12.8-111.5c-8.2-57.7-37.9-101.4-88.8-131.6c-50.3-29.7-116.8-42.5-200.1-38.7
				c32.6,14.3,59.7,37,81.5,68.4c22.1,31.5,35.8,69.2,40.9,113c5.5,46.1,2.5,89.9-9,131c-11.8,41.4-30.4,78.3-56.2,110.1
				c-26.1,32-58.1,58-96.1,77.8c-38.2,19.8-80.1,30.8-125.7,32.9c-47.1,2.3-91.5-5-133-21.9c-41.1-16.6-77.2-40.1-108.1-70.1
				c-30.5-29.9-54.5-65.3-72.4-106.6c-17.5-40.6-26.8-84.5-27.9-131.4c-1.4-50.4,6.7-95.9,23.8-136.9c17-40.4,42.2-75.2,75.7-104.6
				c33.2-29.1,74.1-52.7,123.1-70.5c48.8-17.9,104.8-29.1,168.3-33.6c80.6-5.7,152.9-3.1,217.3,7.8c64.9,10.9,121.1,29.3,168.4,54.6
				c48,25.9,86.8,59.1,116.4,99.9C6174.5,2735.5,6194.1,2783.4,6203.1,2838z M5730.4,2915.6c6.9-21.3,9.2-43.7,6.9-67
				c-2.3-23-8.7-44.4-19.4-64.1c-10.5-19.6-24.2-36.3-40.8-49.8c-16.8-13.4-35.4-23.8-56.1-31c-20.5-7.3-42.2-10.2-65-8.7
				c-22.7,1.5-44,7.2-64.1,17.1c-19.9,9.9-37.1,22.7-51.4,38.4c-14.3,15.9-25.8,33.8-34,53.9c-8.4,20.3-12,41.9-10.9,64.7
				c1,23,6.5,44.5,16.6,64.3c9.8,20.1,23.4,37.4,40.4,52.3c17,15.1,36.5,26.7,58.6,34.9c22.3,8.2,45.2,11.8,69.1,10.3
				c23.9-1.2,46-7.1,66-17.6c20.1-10.5,37.5-24.1,52.1-40.5C5712.8,2956.2,5723.5,2937.1,5730.4,2915.6z"/>
			<path class="st0" d="M6049.6,3248.5l87.3,645.4l-186.3,4.3l-26.5-237.1l-442.2,13.7c12,9.1,24.6,24.1,37.9,44.8
				c13.5,20.7,26.2,43.6,38.5,68.4c12.4,25.2,22.9,51.3,31.5,78.6c8.9,27.4,14,52.1,15.4,73.7l-186.3,4.1
				c-0.9-20.6-7.6-45.3-20.1-74c-12.4-28.6-26.8-56.5-43.3-83.5c-16.3-26.6-32.1-49.8-47.5-69.1c-15.4-19.4-27.3-31.5-36-36.6
				l-5.3-211.3l633.4-24.4l-21.2-189.1L6049.6,3248.5z"/>
			<path class="st0" d="M5598.3,6943c5.7,22.1,5.5,43.6-0.4,64.4c-6,20.5-16.5,39.9-31.7,58.1c-15.1,18.1-34.7,35.2-59.1,51.2
				c-24.2,16.1-52.8,30.6-86.2,43.5c-42.4,16.6-82.5,26.8-120.8,30.3c-39,3.7-75.7,0.6-110-9.3l36.3-87.6
				c23.8,8.6,48.4,12.5,74.1,12.1c25.3-0.5,53.8-6.9,85.6-18.9c35.6-13.7,60.8-29.3,75.6-46.9c14.9-17.8,18.4-38.2,10.5-61.6
				c-8.6-25.1-26.7-40.8-54.7-46.5c-28.8-5.8-67.5,0-116.2,17.6l-27.4,10.1l-37-81l32-11.3c42.4-14.9,71.9-34.4,89-58.6
				c17.2-24.4,21.4-50,12-76.9c-9.3-26.4-26.4-43-51.6-49.6c-25.6-6.7-55.5-4.4-89.3,6.9c-34.9,11.5-63.1,29.1-84.2,52.5
				c-21,23.1-34,49.8-39,79.7L4958,6762c3.1-19.9,11-39.8,24.1-59.5c13.3-20.1,30.1-39.3,50.9-57.7c20.9-18.5,45.1-35.5,72.6-50.9
				c27.4-15.4,57.1-28,88.6-38c40.8-13,79.6-19.5,116.2-20c35.9-0.4,68,4.4,96.4,14.3c27.7,9.6,50.7,24.2,69,43.4
				c17.8,18.8,30.2,41.4,37.2,68.1c5.2,19.3,6.8,38.5,5.3,57.4c-1.5,18.6-6.1,36.4-13.7,53.3c-7.5,16.8-17.5,32-30.1,46
				c-12.7,13.8-27.4,25.4-44.8,34.7c42.1-8.4,78.9-3.6,110.4,13.6C5570.4,6883.4,5589.6,6909,5598.3,6943z"/>
			<path class="st0" d="M5084.4,7082l50.4,81.3l-397.9,151.2l-76.3-76l152.6-56.4l-207.1-242.1c-1.2,10.1-6.5,21.6-16.3,34.7
				c-9.6,13.1-21,26.2-34.1,39.3c-13.3,13-28,25-44.6,36c-16.5,11-32.6,19.2-48.6,24.8l-116.1-113.3c16.5-5.4,32.6-15.7,48.8-31
				c16.1-15.4,30.6-32.3,43.3-50.6c12.6-18.6,22.7-36.1,29.8-52.6c7.3-16.8,10.5-29.3,9.5-37.3l187.9-59.7l290.3,399.1L5084.4,7082z
				"/>
			<path class="st0" d="M5123.1,5139c2.3,66.3-6.4,127.6-26,184.3c-19.6,56.6-49.8,106.4-90.3,149.6
				c-40.7,43.1-89.9,75.9-147.6,98.4c-58.8,23-117.4,32.3-176.1,28c-58.5-4.4-114.2-20.9-166.9-49.2
				c-52.9-28.3-100.8-67.6-144.1-117.9c-43.3-50.3-78.3-110.1-105.4-179.2c-27.1-69.3-41.7-137.1-44-203.3
				c-2.3-66.3,6.4-127.6,26.1-184.3c19.7-56.7,49.4-106.8,89.3-150.2c39.9-43.3,89.3-76.5,148-99.5c57.7-22.5,116.2-31.4,175.5-26.8
				c59.3,4.7,115.3,21.2,168.1,49.5c52.9,28.5,100.8,67.8,144.1,118c43.3,50.3,78.3,110,105.4,179.2
				C5106,5005,5120.8,5072.8,5123.1,5139z M4892.1,5244.6c7.6-32,9.3-67.1,5.2-105.4c-4.1-38.4-14.3-78.4-30.8-120.5
				c-16.3-42.1-36.1-78.8-59.3-110.3c-23.3-31.3-48.4-56.3-75.5-74.8c-27.2-18.4-55.1-29.9-84.2-34.3c-28.9-4.4-57.5-1-85.9,9.9
				c-29.4,11.6-53.2,28.6-71.4,51.5c-18.3,23-31.2,50.4-38.7,82.3c-7.5,32-9.1,67.5-4.7,106.3c4.3,38.8,14.7,79.1,31,121.2
				c16.5,41.9,36.1,78.4,59.1,109.4c23,31,48,55.6,75.1,74c27.3,18.4,55.3,29.9,84.2,34.3c28.9,4.4,58,0.9,87.4-10.5
				c28.3-11.1,51.8-28,70.1-50.9C4871.8,5304,4884.6,5276.6,4892.1,5244.6z"/>
			<path class="st0" d="M4820.7,1253.6l-110.4,153.2l-212-54.1L4307.2,1664c11.9-4.8,28.3-8.7,49.4-11.4c21.3-2.8,44-4.8,68.2-5.7
				c24.5-1.1,49-0.6,73.5,1.2c24.8,1.8,45.9,5.3,62.9,10.2l-82.4,111.8c-15-4.6-35.8-7-61.9-7.2c-25.8-0.2-51.6,1.1-77.7,3.7
				c-25.8,2.6-48.3,5.8-68,9.4c-19.5,3.8-32.6,7.5-39.5,11l-154.1-48.9l226-435.1l-172.7-44l66.5-151.5L4820.7,1253.6z"/>
			<path class="st0" d="M4246.5,5572.8l74.4,190.5l-758.8,296.3c-18.4-47.2-31.3-91.5-39-132.7c-7.6-41.1-8.7-81.6-2.9-121.4
				c5.6-39.6,18.9-80,39.9-120.8c20.9-40.8,50.7-84.5,89.4-131.1c33.9-39.8,64.1-74.9,90.4-105c26.4-30.3,47.6-57,63.8-80.3
				c16.4-23.3,27.3-44.9,32.9-64.5c5.7-19.7,4.6-39.6-3.2-59.6c-12.4-31.4-35.5-53.6-69.5-66.3c-33.9-12.8-74.6-9.9-121.8,8.5
				c-25.3,9.8-46.9,22.3-65.3,37.3c-18.3,15-34.4,31.8-48.3,50.5c-13.8,18.8-25.6,38.1-35.3,58.2c-9.6,20.1-17.7,40.5-24.2,61.2
				l-196.2-103c7.9-20.1,21-43.7,39.4-70.8c18.5-27.1,41.7-55,69.9-83.5c28.1-28.6,61-55.9,98.6-82.1c37.5-26.2,80-48.4,127.2-66.9
				c53.5-21,103.8-33.1,151-36.3c47.1-3.4,89.7,1.2,127.8,13.5c38,12.4,71.1,32.2,99.3,59.3c28,27.1,49.8,60,64.9,98.8
				c14.3,36.7,20.3,72,17.6,105.7c-2.6,33.7-10,65.5-22.4,95.8c-12.5,30.1-27.9,58.3-46.1,84.2c-18.3,25.9-36.6,49.7-54.7,71.3
				c-14.8,17.8-31.5,38.2-50.4,61.4c-18.9,23-36.9,47.4-54.1,72.8c-17.4,25.6-32.6,50.9-45.7,75.9c-13.3,25.1-21.8,48.1-25.8,69
				L4246.5,5572.8z"/>
			<path class="st0" d="M4030.5,1238.7c4.6,36-0.6,72-15.1,107.8c-8.7,21.3-20.7,39.6-35.8,54.9c-14.9,14.9-31.4,27.6-49.2,37.9
				c-17.6,10.2-35.8,18.1-54.3,24.1c-18.4,5.8-36.1,9.6-53.2,11.5c23.6,19.2,41,42.5,52.1,69.8c10.9,27,11.4,52.6,2,76.8
				c-10.4,26.4-26.8,46.6-49.1,61.1c-21.6,14.2-46.2,23.6-73.4,28.8c-26.8,4.9-54.4,6.1-82.9,3.7c-28.2-2.3-54.8-7.8-80.3-16.3
				c-24.6-8.1-49.3-19.5-73.8-34.3c-24.5-14.6-45.9-31.5-64.1-50.7c-18.3-19.3-32.6-40.5-42.9-63.8c-10.4-23.6-13.7-48.6-9.6-75.1
				c1.9-11.7,5.8-22.8,12.1-33.2c6.4-10.7,14.4-19.8,24.4-27.7c9.9-7.9,21.3-14.6,34.1-19.7c12.9-5.2,26.5-8.7,40.4-10.6
				c-13.6-11.3-26.4-24.1-38.1-38.3c-11.9-14.5-22.1-30.2-30.9-47.3c-8.7-17.2-15.1-35.5-19.1-54.8c-4.1-19.7-4.6-40.3-1.4-62.3
				c5.2-36.3,17.5-67.6,37.2-94.3c20.3-27.4,46.2-49.7,77.8-66.6c32.6-17.3,69.3-28.2,110.6-32.5c42.1-4.3,85.8-1.2,131,9.3
				c45.9,10.7,87.3,28,124,52.1c36.8,24.2,66.3,52.7,88.2,85.6C4012.6,1167,4025.7,1201.8,4030.5,1238.7z M3848.7,1304.8
				c5.7-17.2,6.7-34.3,2.9-50.9c-3.8-16.9-10.9-32.4-21.4-46.6c-10.5-14.4-24.1-26.8-40.2-37.3c-16.3-10.3-33.6-17.9-52.3-22.7
				c-19.3-4.8-38.5-6.4-57.5-4.6c-18.8,1.9-36,6.4-51.6,13.7c-15.4,7.2-28.3,17-39,29.5c-10.5,12.4-17.5,26.7-20.9,43.1
				c-3.6,17.6-3,34.4,1.7,50.3c4.7,15.7,12.5,29.9,23,42.4c10.6,12.6,23.3,23.3,37.9,32.4c14.8,9.2,30.5,16,47.2,20.8
				c17.5,4.8,35.2,7.3,52.7,7c17.8-0.3,34.4-3.3,49.6-9.2c15.6-5.8,29.3-14.3,41.3-25.4C3834.2,1336.1,3843,1321.9,3848.7,1304.8z
				 M3734.9,1573.8c3.8-11.9,3.9-23.2,0.4-34c-3.5-10.9-9.4-21-17.7-30.2c-8.4-9.3-18.3-17.3-29.5-24.3c-11.4-7-23.3-12.3-36-16.2
				c-11.7-3.5-24.4-5.5-37.5-5.9c-13.3-0.3-25.4,1.2-36.8,4.7c-11.3,3.5-20.9,8.9-29,16c-7.9,7-13.1,16.5-15.7,28.3
				c-4.3,20.6,1.8,39.7,18.1,57.5c16.1,17.8,37.8,30.9,64.9,39.6c26.8,8.5,51.5,9.9,74.2,4.1
				C3713.6,1607.3,3728.4,1594.2,3734.9,1573.8z"/>
			<path class="st0" d="M2427.5,4954.3c20.4,47.2,29.4,94.1,26.9,141l-130.6-15.8c3.5-30.9-1.4-62.5-14.6-94.7
				c-13.4-32.3-33.7-62.1-60.9-89.3c-41.7-41.4-87.9-62.9-138.3-64.3c-50.3-1.4-99,18.8-145.9,60.2c30.2-2.8,62.3,3,96.3,17.5
				c34,14.5,66.9,37.3,98.4,68.5c32.3,31.7,58,65,77.4,100.4c19.3,35,31.6,69.3,36.8,102.8c5.2,33.4,3.4,64.6-5.5,93.8
				c-9,29.1-24.9,53.9-48.3,74.5c-24.1,21.3-52.6,35.1-85.3,41.9c-32.6,6.7-67.1,6.9-103.5,0.1c-36.4-6.5-73.3-19.8-110.7-39.5
				c-37.6-19.9-73.3-45.8-107.1-77.8c-37-35.2-65.7-71.7-86.1-109.5c-20.3-38.1-31.7-76.2-34.1-114.4c-2.4-38.5,4.4-76.3,20.6-113.5
				c16.3-37.3,42-72.9,77.7-106.9c45-43,91.2-75.2,138.4-96.7c47.4-21.6,94.6-32.5,141.6-32.6c47.1-0.2,93.1,10.1,137.7,30.5
				c44.6,20.4,86.6,50.4,126,89.9C2375.9,4862.2,2406.8,4906.8,2427.5,4954.3z M2128.5,5195.5c4.6-16.1,5.5-33.3,2.9-51.6
				c-2.6-18.4-8.8-36.9-18.6-55.1c-9.9-18.4-23.2-35.8-39.8-52.1c-16.8-16.5-35-29.7-54.5-39.9c-19.7-10.4-39.3-17.1-59-20.3
				c-19.6-3.2-38-2.8-55.1,1.4c-17.2,4.1-32,11.9-44.5,23.6c-12.3,11.5-20.8,25.9-25.6,42.6c-4.6,16.8-5.5,34.4-2.5,52.9
				c3.1,18.3,9.3,36.9,18.9,55.4c9.6,18.6,22.7,35.8,39.3,51.8c16.1,15.4,33.8,27.8,53.3,37.6c19.7,9.8,39,16.2,58.5,19.1
				c19.5,2.9,38.1,2.3,55.8-1.6c17.7-4,32.8-11.6,45.2-22.7C2115.5,5225.3,2124,5211.5,2128.5,5195.5z"/>
			<path class="st0" d="M2253.8,1922.1l94.3,38.4c-7.8,13.1-14.6,30.1-20.3,51.3c-5.7,21-9.9,41.9-12.9,62.9
				c-2.9,20.7-4.6,39.2-5,55c-0.5,15.8,0.4,26.2,2.8,31.2l-87.5,146L1851,2202l-90.2,151.2l-119.1-27.6l297.7-500.1l110,43.6
				l-101.1,169.7l254.2,85.1c-2.3-8.7-2.4-21.3-0.3-38c2.2-16.8,5.5-34.7,10.1-53.9c4.4-19.3,10.4-38.9,17.7-58.6
				C2237.1,1953.6,2245.3,1936.4,2253.8,1922.1z"/>
			<polygon class="st0" points="2140.2,2466 1802.7,3029 1354.9,2552.5 1469.6,2359.6 1834.4,2795.9 2044.5,2444.7 			"/>
			<path class="st0" d="M1792.3,4481.4l-312.3,306.5l122.5,117.3l-81.6,78.6l-396.1-376.3l80.7-82.9l140.7,134.9l207.9-208.3
				c-11.4-0.3-26.7-3.8-45.2-10.5c-18.8-6.9-38.2-15-58.6-24.9c-20.4-9.8-40.4-21-59.9-33.7c-19.7-12.6-35.8-25.3-48.5-37.6
				l86.7-89.3c12.1,11.9,29.6,23.6,52.3,35.4c22.9,11.8,46.3,22,70.4,30.8c24.2,8.9,46,15.7,65.7,20.4c19.5,4.9,33.2,6.7,40.7,5.8
				L1792.3,4481.4z"/>
			<path class="st0" d="M1554.8,5922.1l199,277l-67.6,58l-132-189l-71.4,59.3c6.4,1.3,14,6.1,23,14c9,8.2,18.9,19.9,29.4,35.5
				c15.6,22.8,28,46.6,37.3,71c9.1,24.2,14.6,47.2,16.4,68.6c1.8,21.1-0.2,40.1-5.5,56.7c-5.2,16.1-13.8,28.9-25.6,38.2
				c-12.2,9.6-25.3,13.9-39.6,13.1c-13.9-0.6-28-5.4-42.7-14c-14.2-8.4-28.5-20.1-42.8-35.4c-14.2-14.8-27.7-32.4-40.8-53
				c-8.9-14-16.8-28.1-23.8-42.4c-1.7-3.6-3.4-7.1-4.9-10.8l41.1-7.6c4.5,9.4,9.4,18.4,15.1,27.1c13.4,20.8,27.3,34.7,41.7,42
				c14.9,7.5,27.7,5.8,38.5-5.2c10.8-10.9,15.3-27.1,13-48.4c-2.5-21.6-10.8-43.4-25.1-64.9c-9.4-14.1-19.6-25.3-30.6-33.2
				c-10.8-7.8-20.8-11.8-30.2-11.8l-46.5-70.4c0.4-0.9,2.8-3.3,7-7.4s9.9-9.6,16.8-16.5c7-7,15.1-15,24.2-24.4
				c9.3-9.6,19.2-19.5,29.9-29.7C1484.3,5992.8,1516.2,5961,1554.8,5922.1z"/>
			<path class="st0" d="M1349.5,5636.3l66.9,93.2l-112.4,272.4l47.8,72.5l-3.2,6.3l-21.8,43.1l-138.6-214l15.5-60.3l50.3,76.4
				l58.6-177.9c-4.4,1.8-10.3,1.5-17.6-0.8c-7.2-2.1-14.8-5.5-22.6-9.8c-7.8-4.1-15.3-9.6-22.7-16c-7.5-6.4-13.7-13.4-18.8-20.7
				l22.8-91.2c5.1,7.5,12.2,13.4,21.3,18.1c9.3,4.9,18.9,8.4,28.8,10.5c10.2,2.1,19.5,3,27.8,2.8
				C1340.4,5640.5,1346.1,5639,1349.5,5636.3z"/>
			<path class="st1" d="M1404.4,6261.4l-41,7.6c-4.8-10.7-9-21.3-12.7-32.2c-9.8-29.3-14.8-56.2-14.9-81.5l45.2,13.7
				c1,20.4,4.8,41,11.7,62.3C1396.2,6241.9,1400,6251.8,1404.4,6261.4z"/>
		</g>
		<g>
		</g>
	</g>
</g>
</svg>
