<?xml version="1.0" encoding="utf-8"?>
<!-- Generator: Adobe Illustrator 22.1.0, SVG Export Plug-In . SVG Version: 6.00 Build 0)  -->
<svg version="1.1" id="Layer_1" xmlns="http://www.w3.org/2000/svg" xmlns:xlink="http://www.w3.org/1999/xlink" x="0px" y="0px"
	 viewBox="0 0 16382.9 16382.9" style="enable-background:new 0 0 16382.9 16382.9;" xml:space="preserve">
<style type="text/css">
	.st0{fill:#FFFFFF;}
</style>
<g>
	<g id="XMLID_1_">
		<g>
			<path class="st0" d="M13098.2,2394l3083.5,6181.3l-55.4,61.2l-4518.2,7014.3l-78.9,132.5l-487-62.4l-5500.7-666l-1799.9-790.6
				l-704.1-313.4l-2754-5959.9l-82.8-178.8l143.4-228.7L4639.5,732.1l-0.6-2.1l81-129.7L12944.7,2288l112.1,22.8L13098.2,2394z
				 M15852.8,8529.9l-2692.2-5397.1l644.4,7652.9L15852.8,8529.9z M12657.5,13515.6L15004,9872.4l-1167.6,1286.4l-27.4,29.8
				l-61.8,125.5L12657.5,13515.6z M13533.7,10831.7l-689.2-8185.9L6442.7,5892.6L13533.7,10831.7z M11381.5,15475.7l2035.9-4113.2
				l-7561.5,2866.7L11381.5,15475.7z M5538.5,14056.5l7864.9-2981.8l-7113-4954L5538.5,14056.5z M6264.5,5675.7l6287.3-3188.6
				l-7574-1554.1L6264.5,5675.7z M5614.6,14787.4l3175.2,384.6l-3398.7-766.5l-37.5-8.5l-120.9-22.2l-958.7-176L5614.6,14787.4z
				 M5277.2,13906.7L6020,6070.7L583.5,7890.4L5277.2,13906.7z M6010.2,5785.1L4736.9,1092.3L675.8,7570.6L6010.2,5785.1z
				 M5051.5,14062.9L979.4,8843l1378.7,2984.2l345.4,746.7l533.9,1155.7L5051.5,14062.9z"/>
			<path class="st0" d="M14403.5,8506.8c15.8,60.6,27.4,114.2,34.4,159.6l-182.7-88.9c-5.8-41.4-18-94.1-36.5-157.8
				c-18.3-62.1-38.4-123.3-59.7-183.3c-21-59.1-40.5-110.2-58.8-153.8c-18-42.9-31.4-71-40.2-84.1l-49-392.3l596.3,194.3
				l-72.5-377.9l173.6,46l296.6,1401.2l-212-101.1l-99.6-518.6l-441.9-175.4c13.7,23.1,29.2,57.9,46.9,104.2
				c18,46.9,35.9,98.4,53.9,153.8C14370.9,8388.9,14387.9,8447.1,14403.5,8506.8z"/>
			<path class="st0" d="M14144.3,6964.6c14.3,39,27.4,79.2,39,121.2c12.2,42.3,20.7,79.8,25.9,112.1l-148.9-35.6
				c-4-29.8-13.4-67-27.7-111.2c-14.3-43.6-30.2-85.9-46.9-127.3c-16.8-40.8-32.6-76.1-47.2-106c-14.6-29.5-25.3-48.4-32.6-56.9
				l-35.9-290.5l493.4,56.3l-52.7-275l141.9,9.4l210.1,992.2l-167.5-38.7l-70.3-365.8l-360-61.2c11,15.2,23.1,39,37.2,70.7
				C14116,6890.6,14130.3,6926.2,14144.3,6964.6z"/>
			<path class="st0" d="M11284,5063.3c161.1-11.3,305.8-6.1,434.6,15.5c129.7,21.9,242.1,58.5,336.8,109.3
				c95.9,51.8,173.6,118.2,232.7,199.8c60,82.8,99.3,178.5,117.3,287.8c19.8,117.9,11.6,230.2-25.3,336.8
				c-37.2,107.8-100.8,201.3-190.9,279.9l-261.9-203.4c63.7-47.5,109.9-106.9,138.9-177.2c28.3-70,36.8-144.4,25.6-222.9
				c-16.4-115.4-75.8-202.8-177.5-263.1c-100.5-59.4-233.6-85-400.2-77.4c65.2,28.6,119.4,74,162.9,136.7
				c44.2,63,71.6,138.3,81.9,226c11,92.3,4.9,179.7-18,261.9c-23.5,82.8-60.9,156.5-112.4,220.2c-52.1,64-116.3,116-192.2,155.6
				c-76.4,39.6-160.2,61.5-251.3,65.8c-94.1,4.6-183-10-265.9-43.9c-82.2-33.2-154.4-80.1-216.2-140.1
				c-60.9-59.7-109-130.6-144.7-213.2c-35-81.3-53.6-169-55.7-262.8c-2.7-100.8,13.4-191.9,47.5-273.8
				c34.1-80.7,84.4-150.4,151.4-209.2c66.4-58.2,148.3-105.4,246.1-141C11045,5094.7,11157,5072.4,11284,5063.3z M10904.3,5970.5
				c34.1,30.1,73.1,53.3,117.3,69.7c44.5,16.4,90.4,23.5,138.3,20.7c47.8-2.4,92-14.3,131.9-35.3c40.2-21,74.9-48.1,104.2-81
				c28.9-32.6,50.3-70.7,64-113.9c13.7-42.6,18.3-87.4,13.7-134c-4.6-46-17.4-88.9-38.7-128.2c-21-39.3-48.4-72.5-81.6-99.6
				c-33.5-26.8-70.7-47.5-112.1-62.1c-41.1-14.6-84.4-20.4-130-17.4c-45.4,3-88,14.3-128.2,34.1c-39.9,19.8-74.3,45.4-102.9,76.7
				c-28.6,31.7-51.5,67.6-67.9,107.8c-16.8,40.5-24.1,83.8-21.9,129.4c2.1,46,13.1,88.9,33.2,128.5
				C10843.3,5906,10870.5,5940.7,10904.3,5970.5z"/>
			<path class="st0" d="M11115.9,7575.2c24.7,50.3,45.7,102.6,63,157.1c17.7,54.8,28,104.2,30.8,147.4l-372.5,8.2
				c-1.8-41.1-15.2-90.5-40.2-148c-24.7-57.3-53.6-113-86.5-166.9c-32.6-53.3-64.3-99.6-95-138.3c-30.8-38.7-54.5-63-71.9-73.1
				L10533,6939l1266.6-48.7l-42.3-378.2l341.1-15.5l174.5,1290.7l-372.5,8.5l-53-474.2l-884.4,27.4c24.1,18.3,49.3,48.1,75.8,89.5
				C11065.7,7479.9,11091.2,7525.6,11115.9,7575.2z"/>
			<path class="st0" d="M10387.7,13110.9c81.6-25.9,159.3-39,232.4-39.9c71.9-0.9,136.1,8.8,192.8,28.6
				c55.4,19.2,101.4,48.4,138,86.8c35.6,37.5,60.3,82.8,74.3,136.1c10.4,38.7,13.7,77,10.7,114.8c-3,37.2-12.2,72.8-27.4,106.6
				c-14.9,33.5-35,64-60.3,92c-25.3,27.7-54.8,50.9-89.5,69.4c84.1-16.8,157.8-7.3,220.8,27.1c60.6,33.5,99,84.7,116.3,152.6
				c11.3,44.2,11,87.1-0.9,128.8c-11.9,41.1-32.9,79.8-63.3,116.3c-30.2,36.2-69.4,70.3-118.2,102.3
				c-48.4,32.3-105.7,61.2-172.4,87.1c-84.7,33.2-165.1,53.6-241.5,60.6c-78,7.3-151.4,1.2-219.9-18.6l72.5-175.1
				c47.5,17.1,96.8,25,148.3,24.1c50.6-0.9,107.5-13.7,171.2-37.8c71.3-27.4,121.5-58.5,151.1-93.8c29.8-35.6,36.8-76.4,21-123.3
				c-17.1-50.3-53.3-81.6-109.3-92.9c-57.6-11.6-134.9,0-232.4,35.3l-54.8,20.1l-74-162l64-22.5c84.7-29.8,143.7-68.8,177.9-117.2
				c34.4-48.7,42.9-99.9,24.1-153.8c-18.6-52.7-52.7-85.9-103.2-99.3c-51.2-13.4-110.9-8.8-178.5,13.7
				c-69.7,23.1-126.1,58.2-168.4,105.1c-42,46.3-67.9,99.6-78,159.3l-295.7-118.2c6.1-39.9,21.9-79.5,48.1-119.1
				c26.5-40.2,60.3-78.6,101.7-115.4c41.7-36.9,90.1-71,145.3-101.7C10265.3,13156.3,10324.7,13131,10387.7,13110.9z"/>
			<path class="st0" d="M10168.2,14163.1l100.8,162.6l-795.8,302.4l-152.6-152l305.2-112.7l-414.2-484.2
				c-2.4,20.1-13.1,43.2-32.6,69.4c-19.2,26.2-42,52.4-68.2,78.6c-26.5,25.9-56,49.9-89.2,71.9c-32.9,21.9-65.2,38.4-97.2,49.6
				l-232.1-226.6c32.9-10.7,65.2-31.4,97.5-62.1c32.3-30.8,61.2-64.6,86.5-101.1c25.3-37.2,45.4-72.2,59.7-105.1
				c14.6-33.5,21-58.5,18.9-74.6l375.8-119.4l580.5,798.2L10168.2,14163.1z"/>
			<path class="st0" d="M9322.5,9177.4c118.5,9.4,230.5,42.3,336.2,99c105.7,57,201.6,135.5,288.1,236
				c86.5,100.5,156.5,219.9,210.7,358.4c53.9,138.6,83.4,274.1,88,406.6c4.6,132.5-12.8,255.2-52.1,368.5
				c-39.3,113.3-99.6,212.9-180.6,299.1c-81.3,86.2-179.7,151.7-295.1,196.7c-117.6,46-234.8,64.6-352.1,56
				c-116.9-8.8-228.4-41.7-333.8-98.4c-105.7-56.6-201.6-135.2-288.1-235.7c-86.5-100.5-156.5-220.2-210.7-358.4
				c-54.2-138.6-83.4-274.1-88-406.6c-4.6-132.5,12.8-255.2,52.1-368.5c39.3-113.3,98.7-213.5,178.5-300.3
				c79.8-86.5,178.5-152.9,296-198.9C9087,9185.9,9204,9168,9322.5,9177.4z M8954.9,10340.5c32.9,83.8,72.2,156.8,118.2,218.7
				s95.9,111.2,150.1,148c54.5,36.8,110.5,59.7,168.4,68.5s116,1.8,174.8-21c56.6-22.2,103.5-56,140.1-101.7
				c36.5-45.7,62.1-100.5,77-164.5c15.2-64,18.6-134.3,10.4-210.7c-8.2-76.7-28.6-156.8-61.5-240.9
				c-32.6-84.1-72.2-157.5-118.5-220.5c-46.6-62.7-96.8-112.7-151.1-149.5s-110.2-59.7-168.4-68.5c-57.9-8.8-115.1-2.1-171.8,19.8
				c-58.8,23.1-106.3,57.3-142.8,102.9c-36.5,46-62.4,100.8-77.4,164.5c-14.9,64-18.3,134.9-9.4,212.6
				C8901.6,10175.7,8922.3,10256.4,8954.9,10340.5z"/>
			<path class="st0" d="M8848.9,3293.6c49-2.1,98.1-1.2,147.1,2.4c49.6,3.7,91.7,10.7,125.8,20.4L8957,3540
				c-30.1-9.1-71.6-14-123.9-14.3c-51.5-0.3-103.2,2.1-155.3,7.3c-51.5,5.2-96.5,11.6-136.1,18.9c-39,7.6-65.2,14.9-78.9,21.9
				l-308.2-97.8l451.9-870.1l-345.4-88l133.1-303L9640.7,2507l-220.8,306.4L8996,2705.2l-382.2,622.5c23.8-9.7,56.6-17.4,98.7-22.8
				C8755.1,3299.4,8800.5,3295.4,8848.9,3293.6z"/>
			<path class="st0" d="M7517.7,9902.2c94.1-6.7,179.4,2.4,255.5,27.1s142.2,64.3,198.6,118.5c56,54.2,99.6,120,129.7,197.7
				c28.6,73.4,40.5,144,35.3,211.4c-5.2,67.3-20.1,131-44.8,191.6c-25,60.3-55.7,116.6-92.3,168.4c-36.5,51.8-73.1,99.3-109.3,142.5
				c-29.5,35.6-63,76.4-100.8,122.7c-37.8,46-73.7,94.7-108.1,145.6c-34.7,51.2-65.2,101.7-91.4,151.7
				c-26.5,50.3-43.5,96.2-51.5,138l953.8-372.5l148.9,381l-1517.5,592.6c-36.9-94.4-62.7-183-78-265.3
				c-15.2-82.2-17.4-163.2-5.8-242.7c11.3-79.2,37.8-159.9,79.8-241.5c41.7-81.6,101.4-169,178.8-262.2
				c67.9-79.5,128.2-149.8,180.9-210.1c52.7-60.6,95.3-113.9,127.6-160.5c32.9-46.6,54.5-89.8,65.8-129.1s9.1-79.2-6.4-119.1
				c-24.7-62.7-71-107.2-138.9-132.5c-67.9-25.6-149.2-19.8-243.6,17.1c-50.6,19.5-93.8,44.5-130.6,74.6
				c-36.5,30.1-68.8,63.6-96.5,101.1c-27.7,37.5-51.2,76.1-70.7,116.3c-19.2,40.2-35.3,81-48.4,122.4l-392.3-205.9
				c15.8-40.2,42-87.4,78.9-141.6s83.4-109.9,139.8-166.9c56.3-57.3,122.1-111.8,197.3-164.2c74.9-52.4,159.9-96.8,254.3-133.7
				C7322.8,9932.7,7423.3,9908.6,7517.7,9902.2z"/>
			<path class="st0" d="M7186.1,2643.4c21.3,25.3,46.6,46.6,75.8,64.9c29.5,18.3,60.9,32,94.4,41.7c35,9.7,70.4,14.6,105.4,14
				c35.6-0.6,68.8-6.7,99.3-18.3c31.1-11.6,58.5-28.6,82.5-50.9c24.4-22.8,42-51.2,53.3-85.3c11.3-34.4,13.4-68.5,5.8-101.7
				c-7.6-33.8-21.9-64.9-42.9-93.2c-21-28.9-48.1-53.6-80.4-74.6c-32.6-20.7-67.3-35.9-104.5-45.4c-38.7-9.7-77-12.8-115.1-9.1
				c-37.5,3.7-71.9,12.8-103.2,27.4c-30.8,14.3-56.6,34.1-78,59.1c-21,24.7-35,53.3-41.7,86.2c-7.3,35.3-6.1,68.8,3.3,100.5
				C7149.5,2590.1,7165.1,2618.4,7186.1,2643.4z M7102,3139.2c32.3,35.6,75.5,61.8,129.7,79.2c53.6,17.1,102.9,19.8,148.3,8.2
				c46.6-12.2,76.4-38.4,89.2-79.2c7.6-23.8,7.9-46.3,0.9-67.9c-7-21.9-18.9-42-35.3-60.3c-16.8-18.6-36.5-34.7-59.1-48.7
				c-22.8-14-46.6-24.7-71.9-32.3c-23.4-7-48.7-11-74.9-11.9c-26.5-0.6-50.9,2.4-73.7,9.4c-22.5,7-41.7,17.7-57.9,32
				c-15.8,14-26.2,32.9-31.4,56.6C7057.2,3065.5,7069.4,3103.6,7102,3139.2z M7023.1,2767.3c-27.1-22.5-52.7-48.1-76.1-76.7
				c-23.8-28.9-44.2-60.3-61.8-94.7c-17.4-34.4-30.1-71-38.1-109.6c-8.2-39.3-9.1-80.7-2.7-124.6c10.4-72.5,35-135.2,74.3-188.5
				c40.5-54.8,92.3-99.3,155.6-133.1c65.2-34.7,138.6-56.3,221.1-64.9c84.1-8.5,171.5-2.4,261.9,18.6
				c91.7,21.3,174.5,56,247.9,104.2c73.7,48.4,132.5,105.4,176.3,171.2c43.2,64.6,69.4,134.3,78.9,208c9.1,71.9-1.2,144-30.1,215.6
				c-17.4,42.6-41.4,79.2-71.6,109.9c-29.8,29.8-62.7,55.1-98.4,75.8c-35.3,20.4-71.6,36.2-108.7,48.1
				c-36.9,11.6-72.2,19.2-106.3,23.1c47.2,38.4,81.9,85,104.2,139.5c21.9,53.9,22.8,105.1,4,153.5c-20.7,52.7-53.6,93.2-98.1,122.1
				c-43.2,28.3-92.3,47.2-146.8,57.6c-53.6,9.7-108.7,12.2-165.7,7.3c-56.3-4.6-109.6-15.5-160.5-32.6
				c-49.3-16.1-98.7-39-147.7-68.5c-49-29.2-91.7-63-128.2-101.4c-36.5-38.7-65.2-81-85.9-127.6c-20.7-47.2-27.4-97.1-19.2-150.1
				c3.7-23.4,11.6-45.7,24.1-66.4c12.8-21.3,28.9-39.6,48.7-55.4c19.8-15.8,42.6-29.2,68.2-39.3
				C6968.3,2778,6995.4,2771,7023.1,2767.3z"/>
			<path class="st0" d="M4120.5,9817.3c67.9,28.9,133.7,74.6,196.7,137c64.6,63.3,116,130,154.7,200.7
				c38.7,70,63.3,138.6,73.7,205.6c10.4,66.7,6.7,129.1-11,187.6c-18,58.2-49.9,107.8-96.5,148.9c-48.1,42.6-105.1,70.3-170.5,83.8
				c-65.2,13.4-134.3,13.7-207.1,0.3c-72.8-13.1-146.5-39.6-221.4-78.9c-75.2-39.9-146.5-91.7-214.1-155.6
				c-74-70.3-131.3-143.4-172.1-219c-40.5-76.1-63.3-152.3-68.2-228.7c-4.9-77,8.8-152.6,41.1-226.9
				c32.6-74.6,84.1-145.9,155.3-213.8c90.1-85.9,182.4-150.4,276.8-193.4c94.7-43.2,189.1-64.9,283.2-65.2
				c94.1-0.3,186.1,20.1,275.3,60.9c89.2,40.8,173.3,100.8,251.9,179.7c83.1,83.4,145,172.7,186.4,267.7
				c40.8,94.4,58.8,188.2,53.9,282l-261.3-31.7c7-61.8-2.7-124.9-29.2-189.4c-26.8-64.6-67.3-124.3-121.8-178.5
				c-83.4-82.8-175.7-125.8-276.5-128.5c-100.5-2.7-198,37.5-291.8,120.3C3988.3,9776.7,4052.6,9788.3,4120.5,9817.3z
				 M3701.5,10304.2c19.2,37.2,45.4,71.6,78.6,103.5c32.3,30.8,67.6,55.7,106.6,75.2c39.3,19.5,78,32.3,116.9,38.1
				c39,5.8,76.1,4.6,111.5-3.3c35.3-7.9,65.5-23.1,90.4-45.4c25.3-22.5,42.3-49.9,51.2-81.9c9.1-32.3,11-66.7,5.8-103.2
				c-5.2-36.9-17.7-73.7-37.2-110.2c-19.8-36.8-46.3-71.6-79.5-104.2c-33.5-32.9-70-59.4-109-79.8c-39.3-20.7-78.6-34.1-117.9-40.5
				c-39.3-6.4-76.1-5.5-110.2,2.7c-34.4,8.2-64,23.8-88.9,47.2c-24.7,23.1-41.7,51.8-51.2,85.3c-9.1,33.5-11,68.8-4.9,105.7
				C3669.8,10229.9,3682.3,10267.1,3701.5,10304.2z"/>
			<path class="st0" d="M4507.3,3843.9l188.5,76.7c-15.5,26.2-29.2,60.3-40.5,102.6c-11.3,42-19.8,83.7-25.9,125.8
				c-5.8,41.4-9.1,78.3-10,109.9c-0.9,31.7,0.9,52.4,5.5,62.4L4450,4613.2l-748.3-209.5l-180.3,302.4l-238.2-55.1l595.4-1000.1
				l219.9,87.1l-202.2,339.3l508.3,170.2c-4.6-17.4-4.9-42.6-0.6-76.1s11-69.4,20.1-107.8c8.8-38.7,20.7-77.7,35.3-117.2
				S4490.2,3872.5,4507.3,3843.9z"/>
			<polygon class="st0" points="4280.1,4931.7 3605.2,6057.6 2709.6,5104.7 2938.9,4718.9 3668.6,5591.4 4088.8,4889.1 			"/>
			<path class="st0" d="M2856.7,8509.8c24.1,23.8,59.1,47.2,104.5,70.7c45.7,23.5,92.6,43.9,140.7,61.5
				c48.4,17.7,92,31.4,131.3,40.8c39,9.7,66.4,13.4,81.3,11.6l269.8,267.7l-624.6,613l244.9,234.5l-163.2,157.1l-792.1-752.5
				l161.4-165.7l281.4,269.8l415.7-416.6c-22.8-0.6-53.3-7.6-90.4-21c-37.5-13.7-76.4-30.1-117.2-49.9
				c-40.8-19.5-80.7-42-119.7-67.3c-39.3-25.3-71.6-50.6-97.1-75.2L2856.7,8509.8z"/>
			<path class="st0" d="M2783.9,12643.4c-17.7-28-33.5-56.3-47.5-84.7c-3.3-7.3-6.7-14.3-9.7-21.6l82.2-15.2
				c9.1,18.9,18.9,36.8,30.2,54.2c26.8,41.7,54.5,69.4,83.4,84.1c29.8,14.9,55.4,11.6,77-10.4c21.6-21.9,30.5-54.2,25.9-96.8
				c-4.9-43.2-21.6-86.8-50.2-129.7c-18.9-28.3-39.3-50.6-61.2-66.4c-21.6-15.5-41.7-23.5-60.3-23.5l-92.9-140.7
				c0.9-1.8,5.5-6.7,14-14.9s19.8-19.2,33.5-32.9c14-14,30.1-30.1,48.4-48.7c18.6-19.2,38.4-39,59.7-59.4
				c52.1-52.1,115.7-115.7,193.1-193.4l398,554l-135.2,116l-264-377.9l-142.8,118.5c12.8,2.7,28,12.2,46,28
				c18,16.4,37.8,39.9,58.8,71c31.1,45.7,56,93.2,74.6,141.9c18.3,48.4,29.2,94.4,32.9,137.3c3.7,42.3-0.3,80.1-11,113.3
				c-10.4,32.3-27.7,57.9-51.2,76.4c-24.4,19.2-50.6,27.7-79.2,26.2c-27.7-1.2-56-10.7-85.3-28c-28.3-16.8-56.9-40.2-85.6-70.7
				C2837.2,12719.9,2810.1,12684.5,2783.9,12643.4z"/>
			<path class="st0" d="M2726.6,12537.1c-9.7-21.3-18-42.6-25.3-64.3c-19.5-58.5-29.5-112.4-29.8-162.9l90.4,27.4
				c2.1,40.8,9.7,81.9,23.4,124.6c7,21,14.6,40.8,23.4,60L2726.6,12537.1z"/>
			<path class="st0" d="M2589.9,11493.8c-14.3-4.3-29.5-11-45.1-19.5c-15.5-8.2-30.5-19.2-45.4-32c-14.9-12.8-27.4-26.8-37.5-41.4
				l45.7-182.4c10.1,14.9,24.4,26.8,42.6,36.2c18.6,9.7,37.8,16.8,57.6,21c20.4,4.3,39,6.1,55.7,5.5c17.1-0.9,28.6-4,35.3-9.4
				l133.7,186.4l-224.8,544.8l95.6,145l-6.4,12.5l-43.6,86.2l-277.1-427.9l31.1-120.6L2508,11851l117.2-355.7
				C2616.4,11498.9,2604.5,11498.3,2589.9,11493.8z"/>
		</g>
		<g>
		</g>
	</g>
</g>
</svg>
