<?xml version="1.0" encoding="utf-8"?>
<!-- Generator: Adobe Illustrator 22.1.0, SVG Export Plug-In . SVG Version: 6.00 Build 0)  -->
<svg version="1.1" id="Layer_1" xmlns="http://www.w3.org/2000/svg" xmlns:xlink="http://www.w3.org/1999/xlink" x="0px" y="0px"
	 viewBox="0 0 8192 8192" style="enable-background:new 0 0 8192 8192;" xml:space="preserve">
<style type="text/css">
	.st0{fill:#6D6E6E;}
	.st1{fill:none;stroke:#000000;stroke-width:0;stroke-linecap:round;stroke-linejoin:round;}
</style>
<g>
	<g id="XMLID_1_">
		<g>
			<path class="st0" d="M7897.2,2206.2l-11.8,61.3l-2.9,1.7l-127.5,677.7v0l-513.6,2730.8l-19,13L4089.5,7837.3l-342.1,234.4
				l-24.2,16.6l-0.6-0.9l-38.1,26L914.9,5393.4L352.5,2343.6l-48-260.3l-3.8-20.8l3.8-0.7l-7.2-42.3L4095.2,80.8l26,14.5
				L7897.2,2206.2z M7140.5,5611.7l614.6-3268.1L3747.4,4685.7v3250.8L7140.5,5611.7z M3696.1,4586.5l4024-2351.6L4092.8,207.2
				l-3634,1855L3696.1,4586.5z M3635.9,7909.4V4680.9l-3199-2494.4l581.2,3152L3635.9,7909.4z"/>
			<path class="st0" d="M5590.4,5308.8c56.3,15.9,126.6-1.5,211.5-52c56.1-33.4,108.5-76.1,157.3-128.3
				c49.1-52.5,88.6-108,118.6-166.6l304.8-181.9c-0.2,4.9-4.4,25.1-12.7,60.6c-8.2,35.3-18.4,80.2-30.6,134.4
				c-12.1,53.8-25.1,113.1-39.1,177.7c-13.8,63.9-28.4,128.9-43.7,194.8c-34.1,152-71,317.8-110.5,496.2l-831.4,486.4l-12.5-241.2
				l612.7-360.4l74.3-388c-20.3,31.3-50.1,64.5-89.4,99.6c-39.2,35-87,69.1-143.5,102.6c-82.9,49.1-160.2,82.7-232.1,101
				c-72,18.3-134.7,21.1-188.1,8.1c-53.8-13.1-97.1-41.7-129.9-86.3c-33.2-45-52.3-106.1-57.1-183.8c-5.2-83.4,7-170.3,36.8-260.5
				c30.2-91.4,74.9-182,134.5-271.5c60.2-90.5,133-177,218.6-259.3c86.2-82.9,180.5-155.5,282.6-217.4
				c142.7-86.5,270.2-134.5,381.6-143.9c110.7-9.3,193,18.8,246.7,83.8l-214.2,328.5c-47.9-35.4-109-50.1-183.2-43.9
				c-74.5,6.3-152.1,33.6-232.4,81.9c-96.1,57.9-174.2,132.2-233.9,222.2c-59.1,89.1-87.1,176.5-84.5,261.9
				C5504,5244.7,5533.8,5292.8,5590.4,5308.8z"/>
			<path class="st0" d="M4453.3,1944.8c57.8,50.6,94.9,106.6,111.3,167.7c16.1,60.5,12.6,121.1-10.3,181.7
				c-22.6,59.6-62.8,116.7-120.2,171.1c-56.4,53.4-127.2,100.1-212.1,140.2c-86.5,40.9-175.9,69.7-268.3,86.8
				c-91,16.9-179.3,23-265.3,18.5c-85.2-4.4-165.2-19.3-240.3-44.6c-74.8-25.2-139.7-60.5-194.8-106
				c-60.4-49.9-99.7-103.7-118.1-161.8c-18.6-58.7-15.7-120.1,9.2-184.6c25.3-65.6,73.1-133.5,144.5-204.2
				c73.1-72.3,171-146.1,295-221.7c161.7-98.5,320.9-179.6,476.2-241.5c159.9-63.8,311.5-106.9,453-128.1
				c144.2-21.6,274.6-20.9,389.8,2.5c116,23.6,211.7,69.3,286.1,136.7c78.7,71.3,118.9,153.1,121,244.4
				c1.9,89.8-32.7,182.2-102.8,276.3l-384,10.4c48.4-61,72.6-121.5,72.1-181c-0.6-60.3-26-113-76.3-157.9
				c-77-68.5-191.6-94.2-341.3-77c-146.8,16.9-309.4,75.3-484.6,172.5c86.9-16,171.1-16.1,252.3,0.1
				C4326.8,1861.9,4396.4,1895.1,4453.3,1944.8z M3448.4,2350.2c7.8,29.4,25.6,55.6,53.4,78.8c26.7,22.3,60.3,39.6,100.9,51.8
				c40.7,12.3,84.5,18.8,131.7,19.6c47.4,0.8,96-4.1,146-14.8c50.3-10.7,97.7-27.2,142.1-49.5c44.8-22.6,81.6-48.5,110.3-78.1
				c28.9-29.8,49.4-60.9,61.3-93.3c12-32.7,14.1-64.5,6.3-95.5c-7.9-31.1-26.5-59.4-55.9-84.8c-29.4-25.4-66-44.6-109.5-57.7
				c-43.5-13.1-90.3-19.5-140.5-19.2c-49.9,0.2-99.7,6.8-149.3,19.5c-49.2,12.7-95.4,31.4-138.6,56.1
				c-42.8,24.4-77.5,52.2-104.5,83.3c-26.7,30.8-44.2,61.8-52.7,93C3440.8,2290.5,3440.5,2320.7,3448.4,2350.2z"/>
			<polygon class="st0" points="3592.9,2953.7 3486.3,3003.3 2607.1,2283.6 2704.6,2222.9 			"/>
			<path class="st0" d="M3006.8,5302.1l-37.6,289.5l-326.6-184.8l-57.2,599.4l-255.1-134.6L1313.3,4546.7l-7.8-240l1085.5,635
				l14.5-214.4l285.8,171l-19.8,207.5L3006.8,5302.1z M2346.7,5596.2l25.5-377.6l-540.6-307L2346.7,5596.2z"/>
		</g>
		<g>
			<line class="st1" x1="7755.1" y1="2946.8" x2="7755.1" y2="2946.8"/>
		</g>
	</g>
</g>
</svg>
